<?xml version="1.0" standalone="no"?>
<svg xmlns="http://www.w3.org/2000/svg" width="1260" height="676.333333492279"><g transform="translate(60,20)"><g class="x axis" transform="translate(0,600)" fill="none" font-size="10" font-family="sans-serif" text-anchor="middle"><path class="domain" stroke="#000" d="M0.5,6V0.5H1200.5V6"/><g class="tick" opacity="1" transform="translate(5.4954204829309665,0)"><line stroke="#000" y2="6"/><text fill="#000" y="9" dy="-0.5em" style="text-anchor: end;" dx="-.8em" transform="rotate(-90)">y</text></g><g class="tick" opacity="1" transform="translate(15.487094088259859,0)"><line stroke="#000" y2="6"/><text fill="#000" y="9" dy="-0.5em" style="text-anchor: end;" dx="-.8em" transform="rotate(-90)">y</text></g><g class="tick" opacity="1" transform="translate(25.47876769358875,0)"><line stroke="#000" y2="6"/><text fill="#000" y="9" dy="-0.5em" style="text-anchor: end;" dx="-.8em" transform="rotate(-90)">y</text></g><g class="tick" opacity="1" transform="translate(35.47044129891764,0)"><line stroke="#000" y2="6"/><text fill="#000" y="9" dy="-0.5em" style="text-anchor: end;" dx="-.8em" transform="rotate(-90)">y</text></g><g class="tick" opacity="1" transform="translate(45.46211490424653,0)"><line stroke="#000" y2="6"/><text fill="#000" y="9" dy="-0.5em" style="text-anchor: end;" dx="-.8em" transform="rotate(-90)">y</text></g><g class="tick" opacity="1" transform="translate(55.453788509575425,0)"><line stroke="#000" y2="6"/><text fill="#000" y="9" dy="-0.5em" style="text-anchor: end;" dx="-.8em" transform="rotate(-90)">n</text></g><g class="tick" opacity="1" transform="translate(65.44546211490432,0)"><line stroke="#000" y2="6"/><text fill="#000" y="9" dy="-0.5em" style="text-anchor: end;" dx="-.8em" transform="rotate(-90)">n</text></g><g class="tick" opacity="1" transform="translate(75.43713572023321,0)"><line stroke="#000" y2="6"/><text fill="#000" y="9" dy="-0.5em" style="text-anchor: end;" dx="-.8em" transform="rotate(-90)">n</text></g><g class="tick" opacity="1" transform="translate(85.4288093255621,0)"><line stroke="#000" y2="6"/><text fill="#000" y="9" dy="-0.5em" style="text-anchor: end;" dx="-.8em" transform="rotate(-90)">n</text></g><g class="tick" opacity="1" transform="translate(95.42048293089098,0)"><line stroke="#000" y2="6"/><text fill="#000" y="9" dy="-0.5em" style="text-anchor: end;" dx="-.8em" transform="rotate(-90)">n</text></g><g class="tick" opacity="1" transform="translate(105.41215653621988,0)"><line stroke="#000" y2="6"/><text fill="#000" y="9" dy="-0.5em" style="text-anchor: end;" dx="-.8em" transform="rotate(-90)">n</text></g><g class="tick" opacity="1" transform="translate(115.40383014154878,0)"><line stroke="#000" y2="6"/><text fill="#000" y="9" dy="-0.5em" style="text-anchor: end;" dx="-.8em" transform="rotate(-90)">n</text></g><g class="tick" opacity="1" transform="translate(125.39550374687767,0)"><line stroke="#000" y2="6"/><text fill="#000" y="9" dy="-0.5em" style="text-anchor: end;" dx="-.8em" transform="rotate(-90)">n</text></g><g class="tick" opacity="1" transform="translate(135.38717735220655,0)"><line stroke="#000" y2="6"/><text fill="#000" y="9" dy="-0.5em" style="text-anchor: end;" dx="-.8em" transform="rotate(-90)">n</text></g><g class="tick" opacity="1" transform="translate(145.37885095753546,0)"><line stroke="#000" y2="6"/><text fill="#000" y="9" dy="-0.5em" style="text-anchor: end;" dx="-.8em" transform="rotate(-90)">n</text></g><g class="tick" opacity="1" transform="translate(155.37052456286435,0)"><line stroke="#000" y2="6"/><text fill="#000" y="9" dy="-0.5em" style="text-anchor: end;" dx="-.8em" transform="rotate(-90)">n</text></g><g class="tick" opacity="1" transform="translate(165.36219816819323,0)"><line stroke="#000" y2="6"/><text fill="#000" y="9" dy="-0.5em" style="text-anchor: end;" dx="-.8em" transform="rotate(-90)">n</text></g><g class="tick" opacity="1" transform="translate(175.35387177352212,0)"><line stroke="#000" y2="6"/><text fill="#000" y="9" dy="-0.5em" style="text-anchor: end;" dx="-.8em" transform="rotate(-90)">n</text></g><g class="tick" opacity="1" transform="translate(185.345545378851,0)"><line stroke="#000" y2="6"/><text fill="#000" y="9" dy="-0.5em" style="text-anchor: end;" dx="-.8em" transform="rotate(-90)">n</text></g><g class="tick" opacity="1" transform="translate(195.3372189841799,0)"><line stroke="#000" y2="6"/><text fill="#000" y="9" dy="-0.5em" style="text-anchor: end;" dx="-.8em" transform="rotate(-90)">n</text></g><g class="tick" opacity="1" transform="translate(205.3288925895088,0)"><line stroke="#000" y2="6"/><text fill="#000" y="9" dy="-0.5em" style="text-anchor: end;" dx="-.8em" transform="rotate(-90)">n</text></g><g class="tick" opacity="1" transform="translate(215.32056619483768,0)"><line stroke="#000" y2="6"/><text fill="#000" y="9" dy="-0.5em" style="text-anchor: end;" dx="-.8em" transform="rotate(-90)">n</text></g><g class="tick" opacity="1" transform="translate(225.3122398001666,0)"><line stroke="#000" y2="6"/><text fill="#000" y="9" dy="-0.5em" style="text-anchor: end;" dx="-.8em" transform="rotate(-90)">n</text></g><g class="tick" opacity="1" transform="translate(235.30391340549548,0)"><line stroke="#000" y2="6"/><text fill="#000" y="9" dy="-0.5em" style="text-anchor: end;" dx="-.8em" transform="rotate(-90)">n</text></g><g class="tick" opacity="1" transform="translate(245.29558701082436,0)"><line stroke="#000" y2="6"/><text fill="#000" y="9" dy="-0.5em" style="text-anchor: end;" dx="-.8em" transform="rotate(-90)">n</text></g><g class="tick" opacity="1" transform="translate(255.28726061615325,0)"><line stroke="#000" y2="6"/><text fill="#000" y="9" dy="-0.5em" style="text-anchor: end;" dx="-.8em" transform="rotate(-90)">n</text></g><g class="tick" opacity="1" transform="translate(265.27893422148213,0)"><line stroke="#000" y2="6"/><text fill="#000" y="9" dy="-0.5em" style="text-anchor: end;" dx="-.8em" transform="rotate(-90)">n</text></g><g class="tick" opacity="1" transform="translate(275.27060782681104,0)"><line stroke="#000" y2="6"/><text fill="#000" y="9" dy="-0.5em" style="text-anchor: end;" dx="-.8em" transform="rotate(-90)">n</text></g><g class="tick" opacity="1" transform="translate(285.26228143213996,0)"><line stroke="#000" y2="6"/><text fill="#000" y="9" dy="-0.5em" style="text-anchor: end;" dx="-.8em" transform="rotate(-90)">n</text></g><g class="tick" opacity="1" transform="translate(295.2539550374688,0)"><line stroke="#000" y2="6"/><text fill="#000" y="9" dy="-0.5em" style="text-anchor: end;" dx="-.8em" transform="rotate(-90)">n</text></g><g class="tick" opacity="1" transform="translate(305.2456286427977,0)"><line stroke="#000" y2="6"/><text fill="#000" y="9" dy="-0.5em" style="text-anchor: end;" dx="-.8em" transform="rotate(-90)">n</text></g><g class="tick" opacity="1" transform="translate(315.2373022481266,0)"><line stroke="#000" y2="6"/><text fill="#000" y="9" dy="-0.5em" style="text-anchor: end;" dx="-.8em" transform="rotate(-90)">n</text></g><g class="tick" opacity="1" transform="translate(325.2289758534555,0)"><line stroke="#000" y2="6"/><text fill="#000" y="9" dy="-0.5em" style="text-anchor: end;" dx="-.8em" transform="rotate(-90)">n</text></g><g class="tick" opacity="1" transform="translate(335.2206494587844,0)"><line stroke="#000" y2="6"/><text fill="#000" y="9" dy="-0.5em" style="text-anchor: end;" dx="-.8em" transform="rotate(-90)">n</text></g><g class="tick" opacity="1" transform="translate(345.21232306411326,0)"><line stroke="#000" y2="6"/><text fill="#000" y="9" dy="-0.5em" style="text-anchor: end;" dx="-.8em" transform="rotate(-90)">n</text></g><g class="tick" opacity="1" transform="translate(355.2039966694422,0)"><line stroke="#000" y2="6"/><text fill="#000" y="9" dy="-0.5em" style="text-anchor: end;" dx="-.8em" transform="rotate(-90)">n</text></g><g class="tick" opacity="1" transform="translate(365.19567027477103,0)"><line stroke="#000" y2="6"/><text fill="#000" y="9" dy="-0.5em" style="text-anchor: end;" dx="-.8em" transform="rotate(-90)">n</text></g><g class="tick" opacity="1" transform="translate(375.18734388009995,0)"><line stroke="#000" y2="6"/><text fill="#000" y="9" dy="-0.5em" style="text-anchor: end;" dx="-.8em" transform="rotate(-90)">n</text></g><g class="tick" opacity="1" transform="translate(385.17901748542886,0)"><line stroke="#000" y2="6"/><text fill="#000" y="9" dy="-0.5em" style="text-anchor: end;" dx="-.8em" transform="rotate(-90)">n</text></g><g class="tick" opacity="1" transform="translate(395.1706910907577,0)"><line stroke="#000" y2="6"/><text fill="#000" y="9" dy="-0.5em" style="text-anchor: end;" dx="-.8em" transform="rotate(-90)">n</text></g><g class="tick" opacity="1" transform="translate(405.1623646960866,0)"><line stroke="#000" y2="6"/><text fill="#000" y="9" dy="-0.5em" style="text-anchor: end;" dx="-.8em" transform="rotate(-90)">n</text></g><g class="tick" opacity="1" transform="translate(415.15403830141554,0)"><line stroke="#000" y2="6"/><text fill="#000" y="9" dy="-0.5em" style="text-anchor: end;" dx="-.8em" transform="rotate(-90)">n</text></g><g class="tick" opacity="1" transform="translate(425.1457119067444,0)"><line stroke="#000" y2="6"/><text fill="#000" y="9" dy="-0.5em" style="text-anchor: end;" dx="-.8em" transform="rotate(-90)">n</text></g><g class="tick" opacity="1" transform="translate(435.1373855120733,0)"><line stroke="#000" y2="6"/><text fill="#000" y="9" dy="-0.5em" style="text-anchor: end;" dx="-.8em" transform="rotate(-90)">n</text></g><g class="tick" opacity="1" transform="translate(445.1290591174022,0)"><line stroke="#000" y2="6"/><text fill="#000" y="9" dy="-0.5em" style="text-anchor: end;" dx="-.8em" transform="rotate(-90)">n</text></g><g class="tick" opacity="1" transform="translate(455.1207327227311,0)"><line stroke="#000" y2="6"/><text fill="#000" y="9" dy="-0.5em" style="text-anchor: end;" dx="-.8em" transform="rotate(-90)">n</text></g><g class="tick" opacity="1" transform="translate(465.11240632806,0)"><line stroke="#000" y2="6"/><text fill="#000" y="9" dy="-0.5em" style="text-anchor: end;" dx="-.8em" transform="rotate(-90)">n</text></g><g class="tick" opacity="1" transform="translate(475.10407993338885,0)"><line stroke="#000" y2="6"/><text fill="#000" y="9" dy="-0.5em" style="text-anchor: end;" dx="-.8em" transform="rotate(-90)">n</text></g><g class="tick" opacity="1" transform="translate(485.09575353871776,0)"><line stroke="#000" y2="6"/><text fill="#000" y="9" dy="-0.5em" style="text-anchor: end;" dx="-.8em" transform="rotate(-90)">n</text></g><g class="tick" opacity="1" transform="translate(495.08742714404667,0)"><line stroke="#000" y2="6"/><text fill="#000" y="9" dy="-0.5em" style="text-anchor: end;" dx="-.8em" transform="rotate(-90)">n</text></g><g class="tick" opacity="1" transform="translate(505.0791007493755,0)"><line stroke="#000" y2="6"/><text fill="#000" y="9" dy="-0.5em" style="text-anchor: end;" dx="-.8em" transform="rotate(-90)">n</text></g><g class="tick" opacity="1" transform="translate(515.0707743547044,0)"><line stroke="#000" y2="6"/><text fill="#000" y="9" dy="-0.5em" style="text-anchor: end;" dx="-.8em" transform="rotate(-90)">n</text></g><g class="tick" opacity="1" transform="translate(525.0624479600333,0)"><line stroke="#000" y2="6"/><text fill="#000" y="9" dy="-0.5em" style="text-anchor: end;" dx="-.8em" transform="rotate(-90)">n</text></g><g class="tick" opacity="1" transform="translate(535.0541215653623,0)"><line stroke="#000" y2="6"/><text fill="#000" y="9" dy="-0.5em" style="text-anchor: end;" dx="-.8em" transform="rotate(-90)">n</text></g><g class="tick" opacity="1" transform="translate(545.0457951706911,0)"><line stroke="#000" y2="6"/><text fill="#000" y="9" dy="-0.5em" style="text-anchor: end;" dx="-.8em" transform="rotate(-90)">n</text></g><g class="tick" opacity="1" transform="translate(555.03746877602,0)"><line stroke="#000" y2="6"/><text fill="#000" y="9" dy="-0.5em" style="text-anchor: end;" dx="-.8em" transform="rotate(-90)">n</text></g><g class="tick" opacity="1" transform="translate(565.029142381349,0)"><line stroke="#000" y2="6"/><text fill="#000" y="9" dy="-0.5em" style="text-anchor: end;" dx="-.8em" transform="rotate(-90)">n</text></g><g class="tick" opacity="1" transform="translate(575.0208159866778,0)"><line stroke="#000" y2="6"/><text fill="#000" y="9" dy="-0.5em" style="text-anchor: end;" dx="-.8em" transform="rotate(-90)">n</text></g><g class="tick" opacity="1" transform="translate(585.0124895920067,0)"><line stroke="#000" y2="6"/><text fill="#000" y="9" dy="-0.5em" style="text-anchor: end;" dx="-.8em" transform="rotate(-90)">n</text></g><g class="tick" opacity="1" transform="translate(595.0041631973355,0)"><line stroke="#000" y2="6"/><text fill="#000" y="9" dy="-0.5em" style="text-anchor: end;" dx="-.8em" transform="rotate(-90)">n</text></g><g class="tick" opacity="1" transform="translate(604.9958368026645,0)"><line stroke="#000" y2="6"/><text fill="#000" y="9" dy="-0.5em" style="text-anchor: end;" dx="-.8em" transform="rotate(-90)">n</text></g><g class="tick" opacity="1" transform="translate(614.9875104079933,0)"><line stroke="#000" y2="6"/><text fill="#000" y="9" dy="-0.5em" style="text-anchor: end;" dx="-.8em" transform="rotate(-90)">n</text></g><g class="tick" opacity="1" transform="translate(624.9791840133222,0)"><line stroke="#000" y2="6"/><text fill="#000" y="9" dy="-0.5em" style="text-anchor: end;" dx="-.8em" transform="rotate(-90)">n</text></g><g class="tick" opacity="1" transform="translate(634.9708576186512,0)"><line stroke="#000" y2="6"/><text fill="#000" y="9" dy="-0.5em" style="text-anchor: end;" dx="-.8em" transform="rotate(-90)">n</text></g><g class="tick" opacity="1" transform="translate(644.96253122398,0)"><line stroke="#000" y2="6"/><text fill="#000" y="9" dy="-0.5em" style="text-anchor: end;" dx="-.8em" transform="rotate(-90)">n</text></g><g class="tick" opacity="1" transform="translate(654.9542048293089,0)"><line stroke="#000" y2="6"/><text fill="#000" y="9" dy="-0.5em" style="text-anchor: end;" dx="-.8em" transform="rotate(-90)">n</text></g><g class="tick" opacity="1" transform="translate(664.9458784346378,0)"><line stroke="#000" y2="6"/><text fill="#000" y="9" dy="-0.5em" style="text-anchor: end;" dx="-.8em" transform="rotate(-90)">n</text></g><g class="tick" opacity="1" transform="translate(674.9375520399667,0)"><line stroke="#000" y2="6"/><text fill="#000" y="9" dy="-0.5em" style="text-anchor: end;" dx="-.8em" transform="rotate(-90)">n</text></g><g class="tick" opacity="1" transform="translate(684.9292256452956,0)"><line stroke="#000" y2="6"/><text fill="#000" y="9" dy="-0.5em" style="text-anchor: end;" dx="-.8em" transform="rotate(-90)">n</text></g><g class="tick" opacity="1" transform="translate(694.9208992506245,0)"><line stroke="#000" y2="6"/><text fill="#000" y="9" dy="-0.5em" style="text-anchor: end;" dx="-.8em" transform="rotate(-90)">n</text></g><g class="tick" opacity="1" transform="translate(704.9125728559534,0)"><line stroke="#000" y2="6"/><text fill="#000" y="9" dy="-0.5em" style="text-anchor: end;" dx="-.8em" transform="rotate(-90)">n</text></g><g class="tick" opacity="1" transform="translate(714.9042464612822,0)"><line stroke="#000" y2="6"/><text fill="#000" y="9" dy="-0.5em" style="text-anchor: end;" dx="-.8em" transform="rotate(-90)">n</text></g><g class="tick" opacity="1" transform="translate(724.8959200666111,0)"><line stroke="#000" y2="6"/><text fill="#000" y="9" dy="-0.5em" style="text-anchor: end;" dx="-.8em" transform="rotate(-90)">n</text></g><g class="tick" opacity="1" transform="translate(734.8875936719401,0)"><line stroke="#000" y2="6"/><text fill="#000" y="9" dy="-0.5em" style="text-anchor: end;" dx="-.8em" transform="rotate(-90)">n</text></g><g class="tick" opacity="1" transform="translate(744.8792672772689,0)"><line stroke="#000" y2="6"/><text fill="#000" y="9" dy="-0.5em" style="text-anchor: end;" dx="-.8em" transform="rotate(-90)">n</text></g><g class="tick" opacity="1" transform="translate(754.8709408825978,0)"><line stroke="#000" y2="6"/><text fill="#000" y="9" dy="-0.5em" style="text-anchor: end;" dx="-.8em" transform="rotate(-90)">n</text></g><g class="tick" opacity="1" transform="translate(764.8626144879267,0)"><line stroke="#000" y2="6"/><text fill="#000" y="9" dy="-0.5em" style="text-anchor: end;" dx="-.8em" transform="rotate(-90)">n</text></g><g class="tick" opacity="1" transform="translate(774.8542880932556,0)"><line stroke="#000" y2="6"/><text fill="#000" y="9" dy="-0.5em" style="text-anchor: end;" dx="-.8em" transform="rotate(-90)">n</text></g><g class="tick" opacity="1" transform="translate(784.8459616985845,0)"><line stroke="#000" y2="6"/><text fill="#000" y="9" dy="-0.5em" style="text-anchor: end;" dx="-.8em" transform="rotate(-90)">n</text></g><g class="tick" opacity="1" transform="translate(794.8376353039134,0)"><line stroke="#000" y2="6"/><text fill="#000" y="9" dy="-0.5em" style="text-anchor: end;" dx="-.8em" transform="rotate(-90)">n</text></g><g class="tick" opacity="1" transform="translate(804.8293089092423,0)"><line stroke="#000" y2="6"/><text fill="#000" y="9" dy="-0.5em" style="text-anchor: end;" dx="-.8em" transform="rotate(-90)">n</text></g><g class="tick" opacity="1" transform="translate(814.8209825145711,0)"><line stroke="#000" y2="6"/><text fill="#000" y="9" dy="-0.5em" style="text-anchor: end;" dx="-.8em" transform="rotate(-90)">n</text></g><g class="tick" opacity="1" transform="translate(824.8126561199001,0)"><line stroke="#000" y2="6"/><text fill="#000" y="9" dy="-0.5em" style="text-anchor: end;" dx="-.8em" transform="rotate(-90)">n</text></g><g class="tick" opacity="1" transform="translate(834.804329725229,0)"><line stroke="#000" y2="6"/><text fill="#000" y="9" dy="-0.5em" style="text-anchor: end;" dx="-.8em" transform="rotate(-90)">n</text></g><g class="tick" opacity="1" transform="translate(844.7960033305578,0)"><line stroke="#000" y2="6"/><text fill="#000" y="9" dy="-0.5em" style="text-anchor: end;" dx="-.8em" transform="rotate(-90)">n</text></g><g class="tick" opacity="1" transform="translate(854.7876769358868,0)"><line stroke="#000" y2="6"/><text fill="#000" y="9" dy="-0.5em" style="text-anchor: end;" dx="-.8em" transform="rotate(-90)">n</text></g><g class="tick" opacity="1" transform="translate(864.7793505412156,0)"><line stroke="#000" y2="6"/><text fill="#000" y="9" dy="-0.5em" style="text-anchor: end;" dx="-.8em" transform="rotate(-90)">n</text></g><g class="tick" opacity="1" transform="translate(874.7710241465445,0)"><line stroke="#000" y2="6"/><text fill="#000" y="9" dy="-0.5em" style="text-anchor: end;" dx="-.8em" transform="rotate(-90)">n</text></g><g class="tick" opacity="1" transform="translate(884.7626977518735,0)"><line stroke="#000" y2="6"/><text fill="#000" y="9" dy="-0.5em" style="text-anchor: end;" dx="-.8em" transform="rotate(-90)">n</text></g><g class="tick" opacity="1" transform="translate(894.7543713572023,0)"><line stroke="#000" y2="6"/><text fill="#000" y="9" dy="-0.5em" style="text-anchor: end;" dx="-.8em" transform="rotate(-90)">n</text></g><g class="tick" opacity="1" transform="translate(904.7460449625312,0)"><line stroke="#000" y2="6"/><text fill="#000" y="9" dy="-0.5em" style="text-anchor: end;" dx="-.8em" transform="rotate(-90)">e</text></g><g class="tick" opacity="1" transform="translate(914.73771856786,0)"><line stroke="#000" y2="6"/><text fill="#000" y="9" dy="-0.5em" style="text-anchor: end;" dx="-.8em" transform="rotate(-90)">e</text></g><g class="tick" opacity="1" transform="translate(924.729392173189,0)"><line stroke="#000" y2="6"/><text fill="#000" y="9" dy="-0.5em" style="text-anchor: end;" dx="-.8em" transform="rotate(-90)">e</text></g><g class="tick" opacity="1" transform="translate(934.7210657785179,0)"><line stroke="#000" y2="6"/><text fill="#000" y="9" dy="-0.5em" style="text-anchor: end;" dx="-.8em" transform="rotate(-90)">e</text></g><g class="tick" opacity="1" transform="translate(944.7127393838467,0)"><line stroke="#000" y2="6"/><text fill="#000" y="9" dy="-0.5em" style="text-anchor: end;" dx="-.8em" transform="rotate(-90)">e</text></g><g class="tick" opacity="1" transform="translate(954.7044129891757,0)"><line stroke="#000" y2="6"/><text fill="#000" y="9" dy="-0.5em" style="text-anchor: end;" dx="-.8em" transform="rotate(-90)">e</text></g><g class="tick" opacity="1" transform="translate(964.6960865945045,0)"><line stroke="#000" y2="6"/><text fill="#000" y="9" dy="-0.5em" style="text-anchor: end;" dx="-.8em" transform="rotate(-90)">e</text></g><g class="tick" opacity="1" transform="translate(974.6877601998334,0)"><line stroke="#000" y2="6"/><text fill="#000" y="9" dy="-0.5em" style="text-anchor: end;" dx="-.8em" transform="rotate(-90)">e</text></g><g class="tick" opacity="1" transform="translate(984.6794338051624,0)"><line stroke="#000" y2="6"/><text fill="#000" y="9" dy="-0.5em" style="text-anchor: end;" dx="-.8em" transform="rotate(-90)">e</text></g><g class="tick" opacity="1" transform="translate(994.6711074104912,0)"><line stroke="#000" y2="6"/><text fill="#000" y="9" dy="-0.5em" style="text-anchor: end;" dx="-.8em" transform="rotate(-90)">e</text></g><g class="tick" opacity="1" transform="translate(1004.6627810158201,0)"><line stroke="#000" y2="6"/><text fill="#000" y="9" dy="-0.5em" style="text-anchor: end;" dx="-.8em" transform="rotate(-90)">e</text></g><g class="tick" opacity="1" transform="translate(1014.6544546211491,0)"><line stroke="#000" y2="6"/><text fill="#000" y="9" dy="-0.5em" style="text-anchor: end;" dx="-.8em" transform="rotate(-90)">e</text></g><g class="tick" opacity="1" transform="translate(1024.646128226478,0)"><line stroke="#000" y2="6"/><text fill="#000" y="9" dy="-0.5em" style="text-anchor: end;" dx="-.8em" transform="rotate(-90)">e</text></g><g class="tick" opacity="1" transform="translate(1034.6378018318069,0)"><line stroke="#000" y2="6"/><text fill="#000" y="9" dy="-0.5em" style="text-anchor: end;" dx="-.8em" transform="rotate(-90)">e</text></g><g class="tick" opacity="1" transform="translate(1044.6294754371356,0)"><line stroke="#000" y2="6"/><text fill="#000" y="9" dy="-0.5em" style="text-anchor: end;" dx="-.8em" transform="rotate(-90)">e</text></g><g class="tick" opacity="1" transform="translate(1054.6211490424646,0)"><line stroke="#000" y2="6"/><text fill="#000" y="9" dy="-0.5em" style="text-anchor: end;" dx="-.8em" transform="rotate(-90)">e</text></g><g class="tick" opacity="1" transform="translate(1064.6128226477936,0)"><line stroke="#000" y2="6"/><text fill="#000" y="9" dy="-0.5em" style="text-anchor: end;" dx="-.8em" transform="rotate(-90)">e</text></g><g class="tick" opacity="1" transform="translate(1074.6044962531223,0)"><line stroke="#000" y2="6"/><text fill="#000" y="9" dy="-0.5em" style="text-anchor: end;" dx="-.8em" transform="rotate(-90)">e</text></g><g class="tick" opacity="1" transform="translate(1084.5961698584513,0)"><line stroke="#000" y2="6"/><text fill="#000" y="9" dy="-0.5em" style="text-anchor: end;" dx="-.8em" transform="rotate(-90)">e</text></g><g class="tick" opacity="1" transform="translate(1094.5878434637802,0)"><line stroke="#000" y2="6"/><text fill="#000" y="9" dy="-0.5em" style="text-anchor: end;" dx="-.8em" transform="rotate(-90)">e</text></g><g class="tick" opacity="1" transform="translate(1104.579517069109,0)"><line stroke="#000" y2="6"/><text fill="#000" y="9" dy="-0.5em" style="text-anchor: end;" dx="-.8em" transform="rotate(-90)">e</text></g><g class="tick" opacity="1" transform="translate(1114.571190674438,0)"><line stroke="#000" y2="6"/><text fill="#000" y="9" dy="-0.5em" style="text-anchor: end;" dx="-.8em" transform="rotate(-90)">e</text></g><g class="tick" opacity="1" transform="translate(1124.562864279767,0)"><line stroke="#000" y2="6"/><text fill="#000" y="9" dy="-0.5em" style="text-anchor: end;" dx="-.8em" transform="rotate(-90)">e</text></g><g class="tick" opacity="1" transform="translate(1134.5545378850957,0)"><line stroke="#000" y2="6"/><text fill="#000" y="9" dy="-0.5em" style="text-anchor: end;" dx="-.8em" transform="rotate(-90)">e</text></g><g class="tick" opacity="1" transform="translate(1144.5462114904246,0)"><line stroke="#000" y2="6"/><text fill="#000" y="9" dy="-0.5em" style="text-anchor: end;" dx="-.8em" transform="rotate(-90)">e</text></g><g class="tick" opacity="1" transform="translate(1154.5378850957534,0)"><line stroke="#000" y2="6"/><text fill="#000" y="9" dy="-0.5em" style="text-anchor: end;" dx="-.8em" transform="rotate(-90)">e</text></g><g class="tick" opacity="1" transform="translate(1164.5295587010824,0)"><line stroke="#000" y2="6"/><text fill="#000" y="9" dy="-0.5em" style="text-anchor: end;" dx="-.8em" transform="rotate(-90)">e</text></g><g class="tick" opacity="1" transform="translate(1174.5212323064113,0)"><line stroke="#000" y2="6"/><text fill="#000" y="9" dy="-0.5em" style="text-anchor: end;" dx="-.8em" transform="rotate(-90)">e</text></g><g class="tick" opacity="1" transform="translate(1184.51290591174,0)"><line stroke="#000" y2="6"/><text fill="#000" y="9" dy="-0.5em" style="text-anchor: end;" dx="-.8em" transform="rotate(-90)">e</text></g><g class="tick" opacity="1" transform="translate(1194.504579517069,0)"><line stroke="#000" y2="6"/><text fill="#000" y="9" dy="-0.5em" style="text-anchor: end;" dx="-.8em" transform="rotate(-90)">e</text></g></g><g class="y axis" fill="none" font-size="10" font-family="sans-serif" text-anchor="end"><path class="domain" stroke="#000" d="M-6,600.5H0.5V0.5H-6"/><g class="tick" opacity="1" transform="translate(0,600.5)"><line stroke="#000" x2="-6"/><text fill="#000" x="-9" dy="0.32em">0%</text></g><g class="tick" opacity="1" transform="translate(0,540.5)"><line stroke="#000" x2="-6"/><text fill="#000" x="-9" dy="0.32em">10%</text></g><g class="tick" opacity="1" transform="translate(0,480.5)"><line stroke="#000" x2="-6"/><text fill="#000" x="-9" dy="0.32em">20%</text></g><g class="tick" opacity="1" transform="translate(0,420.5)"><line stroke="#000" x2="-6"/><text fill="#000" x="-9" dy="0.32em">30%</text></g><g class="tick" opacity="1" transform="translate(0,360.5)"><line stroke="#000" x2="-6"/><text fill="#000" x="-9" dy="0.32em">40%</text></g><g class="tick" opacity="1" transform="translate(0,300.5)"><line stroke="#000" x2="-6"/><text fill="#000" x="-9" dy="0.32em">50%</text></g><g class="tick" opacity="1" transform="translate(0,240.5)"><line stroke="#000" x2="-6"/><text fill="#000" x="-9" dy="0.32em">60%</text></g><g class="tick" opacity="1" transform="translate(0,180.5)"><line stroke="#000" x2="-6"/><text fill="#000" x="-9" dy="0.32em">70%</text></g><g class="tick" opacity="1" transform="translate(0,120.5)"><line stroke="#000" x2="-6"/><text fill="#000" x="-9" dy="0.32em">80%</text></g><g class="tick" opacity="1" transform="translate(0,60.5)"><line stroke="#000" x2="-6"/><text fill="#000" x="-9" dy="0.32em">90%</text></g><g class="tick" opacity="1" transform="translate(0,0.5)"><line stroke="#000" x2="-6"/><text fill="#000" x="-9" dy="0.32em">100%</text></g></g><text id="y-label" text-anchor="middle" style="font: 12px sans-serif;" transform="translate(-30,300)rotate(-90)">Relative Frequency</text><text id="x-label" text-anchor="middle" style="font: 12px sans-serif;" transform="translate(600,636.333333492279)">Sample</text><g class="layer" style="fill: rgb(127, 201, 127);"><rect x="820.3164029975021" y="0" height="594.6756588872128" width="8.992506244796003"/><rect x="1060.1165695253956" y="0" height="594.4339025932953" width="8.992506244796003"/><rect x="910.241465445462" y="0" height="593.2835820895523" width="8.992506244796003"/><rect x="1110.07493755204" y="0" height="594.557987664772" width="8.992506244796003"/><rect x="880.2664446294755" y="0" height="596.1786829406756" width="8.992506244796003"/><rect x="1170.0249791840133" y="0" height="595.0192159877017" width="8.992506244796003"/><rect x="1180.016652789342" y="0" height="600" width="8.992506244796003"/><rect x="920.233139050791" y="0" height="593.712436430883" width="8.992506244796003"/><rect x="380.68276436303086" y="0" height="592.95215721134" width="8.992506244796003"/><rect x="1120.066611157369" y="0" height="594.6451638157122" width="8.992506244796003"/><rect x="1080.0999167360533" y="0" height="594.5275446917184" width="8.992506244796003"/><rect x="1150.0416319733554" y="0" height="594.6987951807229" width="8.992506244796003"/><rect x="180.849292256453" y="0" height="586.2618761603145" width="8.992506244796003"/><rect x="1140.0499583680266" y="0" height="594.6741060106518" width="8.992506244796003"/><rect x="1190.008326394671" y="0" height="600" width="8.992506244796003"/><rect x="1130.0582847626977" y="0" height="594.6664272245667" width="8.992506244796003"/><rect x="890.2581182348043" y="0" height="597.8927573905589" width="8.992506244796003"/><rect x="1100.083263946711" y="0" height="594.5482079757699" width="8.992506244796003"/><rect x="1040.1332223147376" y="0" height="594.4041450777202" width="8.992506244796003"/><rect x="310.7410491257286" y="0" height="592.5322970276231" width="8.992506244796003"/><rect x="990.1748542880932" y="0" height="594.2326947466792" width="8.992506244796003"/><rect x="1070.1082431307243" y="0" height="594.5063067788932" width="8.992506244796003"/><rect x="1050.1248959200666" y="0" height="594.4251311547943" width="8.992506244796003"/><rect x="280.76602830974196" y="0" height="591.9615523881629" width="8.992506244796003"/><rect x="1000.1665278934221" y="0" height="594.2431580390186" width="8.992506244796003"/><rect x="960.1998334721065" y="0" height="594.0933808363022" width="8.992506244796003"/><rect x="1010.158201498751" y="0" height="594.2562292076855" width="8.992506244796003"/><rect x="630.4746044962532" y="0" height="593.9372498728635" width="8.992506244796003"/><rect x="1090.0915903413822" y="0" height="594.5469567612228" width="8.992506244796003"/><rect x="930.2248126561199" y="0" height="593.8701045974216" width="8.992506244796003"/><rect x="1160.0333055786843" y="0" height="594.8445171849427" width="8.992506244796003"/><rect x="850.2914238134888" y="0" height="594.9283407347598" width="8.992506244796003"/><rect x="940.2164862614487" y="0" height="593.9857845817387" width="8.992506244796003"/><rect x="950.2081598667777" y="0" height="594.0367732317376" width="8.992506244796003"/><rect x="1020.1498751040799" y="0" height="594.3150936467132" width="8.992506244796003"/><rect x="150.87427144046634" y="0" height="583.8198827772768" width="8.992506244796003"/><rect x="980.1831806827644" y="0" height="594.2266571632217" width="8.992506244796003"/><rect x="1030.1415487094089" y="0" height="594.3797090300246" width="8.992506244796003"/><rect x="970.1915070774354" y="0" height="594.1206891858787" width="8.992506244796003"/><rect x="640.466278101582" y="0" height="593.9459868514402" width="8.992506244796003"/><rect x="270.77435470441304" y="0" height="591.8580690556365" width="8.992506244796003"/><rect x="510.57452123230644" y="0" height="593.3129085952766" width="8.992506244796003"/><rect x="750.3746877601998" y="0" height="594.3090684762492" width="8.992506244796003"/><rect x="120.89925062447966" y="0" height="578.5391728191528" width="8.992506244796003"/><rect x="580.5162364696087" y="0" height="593.8264240978228" width="8.992506244796003"/><rect x="0.9991673605329652" y="0" height="593.3107443436442" width="8.992506244796003"/><rect x="710.4079933388842" y="0" height="594.1499180988534" width="8.992506244796003"/><rect x="210.82431307243968" y="0" height="589.8305084745763" width="8.992506244796003"/><rect x="490.59117402164867" y="0" height="593.2813258183719" width="8.992506244796003"/><rect x="840.2997502081598" y="0" height="594.7824886700868" width="8.992506244796003"/><rect x="460.616153205662" y="0" height="593.2143253132276" width="8.992506244796003"/><rect x="200.8326394671108" y="0" height="589.3151154813629" width="8.992506244796003"/><rect x="810.3247293921731" y="0" height="594.6357454417382" width="8.992506244796003"/><rect x="780.3497085761865" y="0" height="594.4442991289791" width="8.992506244796003"/><rect x="550.541215653622" y="0" height="593.6802067586677" width="8.992506244796003"/><rect x="540.5495420482931" y="0" height="593.6636740331492" width="8.992506244796003"/><rect x="660.4496253122398" y="0" height="593.983286908078" width="8.992506244796003"/><rect x="860.2830974188176" y="0" height="595.076525908169" width="8.992506244796003"/><rect x="670.4412989175687" y="0" height="593.9887627772638" width="8.992506244796003"/><rect x="70.94088259783521" y="0" height="572.7489704230625" width="8.992506244796003"/><rect x="740.3830141548709" y="0" height="594.2337095012741" width="8.992506244796003"/><rect x="520.5661948376353" y="0" height="593.5281901869014" width="8.992506244796003"/><rect x="720.3996669442131" y="0" height="594.1807358751988" width="8.992506244796003"/><rect x="170.8576186511241" y="0" height="585.4412712046382" width="8.992506244796003"/><rect x="10.990840965861857" y="0" height="593.6704933291963" width="8.992506244796003"/><rect x="20.982514571190748" y="0" height="593.7400013911108" width="8.992506244796003"/><rect x="610.4912572855953" y="0" height="593.9256865912763" width="8.992506244796003"/><rect x="470.60782681099084" y="0" height="593.2512454178025" width="8.992506244796003"/><rect x="500.5828476269775" y="0" height="593.3127674395462" width="8.992506244796003"/><rect x="790.3413821815154" y="0" height="594.5386996904025" width="8.992506244796003"/><rect x="30.97418817651964" y="0" height="594.2273000601323" width="8.992506244796003"/><rect x="350.7077435470442" y="0" height="592.7278803146368" width="8.992506244796003"/><rect x="560.532889258951" y="0" height="593.6923782904342" width="8.992506244796003"/><rect x="690.4246461282265" y="0" height="594.0771761890518" width="8.992506244796003"/><rect x="650.4579517069109" y="0" height="593.9463727586774" width="8.992506244796003"/><rect x="230.80766028309748" y="0" height="590.3269092394158" width="8.992506244796003"/><rect x="480.59950041631976" y="0" height="593.2528589580686" width="8.992506244796003"/><rect x="300.7493755203997" y="0" height="592.2315832969858" width="8.992506244796003"/><rect x="730.3913405495421" y="0" height="594.2242479489516" width="8.992506244796003"/><rect x="130.89092422980855" y="0" height="579.5883407831697" width="8.992506244796003"/><rect x="40.96586178184853" y="0" height="594.4854086613356" width="8.992506244796003"/><rect x="330.7243963363864" y="0" height="592.6604580921219" width="8.992506244796003"/><rect x="340.71606994171526" y="0" height="592.717552288408" width="8.992506244796003"/><rect x="100.91590341382188" y="0" height="574.8828909212581" width="8.992506244796003"/><rect x="320.7327227310575" y="0" height="592.5430405107135" width="8.992506244796003"/><rect x="450.6244796003331" y="0" height="593.1942121718897" width="8.992506244796003"/><rect x="370.69109075770194" y="0" height="592.928529436466" width="8.992506244796003"/><rect x="140.88259783513746" y="0" height="579.6188536514402" width="8.992506244796003"/><rect x="830.308076602831" y="0" height="594.7343126397392" width="8.992506244796003"/><rect x="600.4995836802665" y="0" height="593.8699690402477" width="8.992506244796003"/><rect x="360.69941715237303" y="0" height="592.7283705684465" width="8.992506244796003"/><rect x="80.9325562031641" y="0" height="573.1902542000175" width="8.992506244796003"/><rect x="260.78268109908413" y="0" height="591.8155245209483" width="8.992506244796003"/><rect x="420.6494587843464" y="0" height="593.0632320876223" width="8.992506244796003"/><rect x="90.92422980849298" y="0" height="573.3725800973622" width="8.992506244796003"/><rect x="680.4329725228976" y="0" height="593.9993219572833" width="8.992506244796003"/><rect x="870.2747710241465" y="0" height="595.167195508909" width="8.992506244796003"/><rect x="530.5578684429643" y="0" height="593.545283596449" width="8.992506244796003"/><rect x="60.949208992506314" y="0" height="571.4751381215469" width="8.992506244796003"/><rect x="430.6411323896753" y="0" height="593.081272868389" width="8.992506244796003"/><rect x="700.4163197335554" y="0" height="594.0835567857451" width="8.992506244796003"/><rect x="110.90757701915078" y="0" height="576.6695829687956" width="8.992506244796003"/><rect x="590.5079100749375" y="0" height="593.8528089248108" width="8.992506244796003"/><rect x="440.6328059950042" y="0" height="593.1345688960515" width="8.992506244796003"/><rect x="390.6744379683597" y="0" height="592.9595827900913" width="8.992506244796003"/><rect x="220.8159866777686" y="0" height="590.2700124539601" width="8.992506244796003"/><rect x="760.3663613655287" y="0" height="594.3559593800107" width="8.992506244796003"/><rect x="290.7577019150708" y="0" height="591.9924599434496" width="8.992506244796003"/><rect x="410.65778517901754" y="0" height="593.040187569413" width="8.992506244796003"/><rect x="50.95753538717742" y="0" height="561.12828438949" width="8.992506244796003"/><rect x="400.6661115736886" y="0" height="592.9952004150992" width="8.992506244796003"/><rect x="800.3330557868443" y="0" height="594.5687704299723" width="8.992506244796003"/><rect x="570.5245628642798" y="0" height="593.7873438348723" width="8.992506244796003"/><rect x="160.86594504579523" y="0" height="584.4151500794292" width="8.992506244796003"/><rect x="240.79933388842636" y="0" height="591.0024100687316" width="8.992506244796003"/><rect x="190.8409658617819" y="0" height="589.1319631115339" width="8.992506244796003"/><rect x="250.79100749375525" y="0" height="591.198375084631" width="8.992506244796003"/><rect x="620.4829308909242" y="0" height="593.9257962131991" width="8.992506244796003"/><rect x="770.3580349708576" y="0" height="594.4112729878194" width="8.992506244796003"/><rect x="900.2497918401332" y="0" height="590.8338637810311" width="8.992506244796003"/></g><g class="layer" style="fill: rgb(190, 174, 212);"><rect x="820.3164029975021" y="594.6756588872128" height="5.324341112787238" width="8.992506244796003"/><rect x="1060.1165695253956" y="594.4339025932953" height="5.566097406704671" width="8.992506244796003"/><rect x="910.241465445462" y="593.2835820895523" height="6.716417910447717" width="8.992506244796003"/><rect x="1110.07493755204" y="594.557987664772" height="5.442012335228014" width="8.992506244796003"/><rect x="880.2664446294755" y="596.1786829406756" height="3.8213170593244286" width="8.992506244796003"/><rect x="1170.0249791840133" y="595.0192159877017" height="4.9807840122982725" width="8.992506244796003"/><rect x="1180.016652789342" y="600" height="0" width="8.992506244796003"/><rect x="920.233139050791" y="593.712436430883" height="6.287563569116969" width="8.992506244796003"/><rect x="380.68276436303086" y="592.95215721134" height="7.0478427886599775" width="8.992506244796003"/><rect x="1120.066611157369" y="594.6451638157122" height="5.354836184287819" width="8.992506244796003"/><rect x="1080.0999167360533" y="594.5275446917184" height="5.47245530828161" width="8.992506244796003"/><rect x="1150.0416319733554" y="594.6987951807229" height="5.301204819277132" width="8.992506244796003"/><rect x="180.849292256453" y="586.2618761603145" height="13.7381238396855" width="8.992506244796003"/><rect x="1140.0499583680266" y="594.6741060106518" height="5.325893989348174" width="8.992506244796003"/><rect x="1190.008326394671" y="600" height="0" width="8.992506244796003"/><rect x="1130.0582847626977" y="594.6664272245667" height="5.333572775433254" width="8.992506244796003"/><rect x="890.2581182348043" y="597.8927573905589" height="2.107242609441073" width="8.992506244796003"/><rect x="1100.083263946711" y="594.5482079757699" height="5.451792024230144" width="8.992506244796003"/><rect x="1040.1332223147376" y="594.4041450777202" height="5.595854922279841" width="8.992506244796003"/><rect x="310.7410491257286" y="592.5322970276231" height="7.4677029723768555" width="8.992506244796003"/><rect x="990.1748542880932" y="594.2326947466792" height="5.767305253320842" width="8.992506244796003"/><rect x="1070.1082431307243" y="594.5063067788932" height="5.49369322110681" width="8.992506244796003"/><rect x="1050.1248959200666" y="594.4251311547943" height="5.574868845205742" width="8.992506244796003"/><rect x="280.76602830974196" y="591.9615523881629" height="8.038447611837114" width="8.992506244796003"/><rect x="1000.1665278934221" y="594.2431580390186" height="5.756841960981433" width="8.992506244796003"/><rect x="960.1998334721065" y="594.0933808363022" height="5.906619163697769" width="8.992506244796003"/><rect x="1010.158201498751" y="594.2562292076855" height="5.743770792314535" width="8.992506244796003"/><rect x="630.4746044962532" y="593.9372498728635" height="6.062750127136496" width="8.992506244796003"/><rect x="1090.0915903413822" y="594.5469567612228" height="5.453043238777241" width="8.992506244796003"/><rect x="930.2248126561199" y="593.8701045974216" height="6.129895402578427" width="8.992506244796003"/><rect x="1160.0333055786843" y="594.8445171849427" height="5.155482815057326" width="8.992506244796003"/><rect x="850.2914238134888" y="594.9283407347598" height="5.071659265240214" width="8.992506244796003"/><rect x="940.2164862614487" y="593.9857845817387" height="6.014215418261301" width="8.992506244796003"/><rect x="950.2081598667777" y="594.0367732317376" height="5.963226768262416" width="8.992506244796003"/><rect x="1020.1498751040799" y="594.3150936467132" height="5.684906353286806" width="8.992506244796003"/><rect x="150.87427144046634" y="583.8198827772768" height="16.180117222723197" width="8.992506244796003"/><rect x="980.1831806827644" y="594.2266571632217" height="5.7733428367782835" width="8.992506244796003"/><rect x="1030.1415487094089" y="594.3797090300246" height="5.620290969975372" width="8.992506244796003"/><rect x="970.1915070774354" y="594.1206891858787" height="5.879310814121254" width="8.992506244796003"/><rect x="640.466278101582" y="593.9459868514402" height="6.054013148559761" width="8.992506244796003"/><rect x="270.77435470441304" y="591.8580690556365" height="8.14193094436348" width="8.992506244796003"/><rect x="510.57452123230644" y="593.3129085952766" height="6.687091404723446" width="8.992506244796003"/><rect x="750.3746877601998" y="594.3090684762492" height="5.690931523750805" width="8.992506244796003"/><rect x="120.89925062447966" y="578.5391728191528" height="21.460827180847218" width="8.992506244796003"/><rect x="580.5162364696087" y="593.8264240978228" height="6.173575902177163" width="8.992506244796003"/><rect x="0.9991673605329652" y="593.3107443436442" height="6.68925565635584" width="8.992506244796003"/><rect x="710.4079933388842" y="594.1499180988534" height="5.850081901146609" width="8.992506244796003"/><rect x="210.82431307243968" y="589.8305084745763" height="10.169491525423723" width="8.992506244796003"/><rect x="490.59117402164867" y="593.2813258183719" height="6.718674181628103" width="8.992506244796003"/><rect x="840.2997502081598" y="594.7824886700868" height="5.217511329913236" width="8.992506244796003"/><rect x="460.616153205662" y="593.2143253132276" height="6.785674686772381" width="8.992506244796003"/><rect x="200.8326394671108" y="589.3151154813629" height="10.68488451863709" width="8.992506244796003"/><rect x="810.3247293921731" y="594.6357454417382" height="5.364254558261791" width="8.992506244796003"/><rect x="780.3497085761865" y="594.4442991289791" height="5.5557008710209175" width="8.992506244796003"/><rect x="550.541215653622" y="593.6802067586677" height="6.319793241332263" width="8.992506244796003"/><rect x="540.5495420482931" y="593.6636740331492" height="6.336325966850836" width="8.992506244796003"/><rect x="660.4496253122398" y="593.983286908078" height="6.016713091922043" width="8.992506244796003"/><rect x="860.2830974188176" y="595.076525908169" height="4.923474091831054" width="8.992506244796003"/><rect x="670.4412989175687" y="593.9887627772638" height="6.011237222736213" width="8.992506244796003"/><rect x="70.94088259783521" y="572.7489704230625" height="27.251029576937526" width="8.992506244796003"/><rect x="740.3830141548709" y="594.2337095012741" height="5.76629049872588" width="8.992506244796003"/><rect x="520.5661948376353" y="593.5281901869014" height="6.471809813098616" width="8.992506244796003"/><rect x="720.3996669442131" y="594.1807358751988" height="5.81926412480118" width="8.992506244796003"/><rect x="170.8576186511241" y="585.4412712046382" height="14.558728795361844" width="8.992506244796003"/><rect x="10.990840965861857" y="593.6704933291963" height="6.329506670803653" width="8.992506244796003"/><rect x="20.982514571190748" y="593.7400013911108" height="6.259998608889191" width="8.992506244796003"/><rect x="610.4912572855953" y="593.9256865912763" height="6.074313408723697" width="8.992506244796003"/><rect x="470.60782681099084" y="593.2512454178025" height="6.7487545821975345" width="8.992506244796003"/><rect x="500.5828476269775" y="593.3127674395462" height="6.687232560453822" width="8.992506244796003"/><rect x="790.3413821815154" y="594.5386996904025" height="5.461300309597505" width="8.992506244796003"/><rect x="30.97418817651964" y="594.2273000601323" height="5.772699939867721" width="8.992506244796003"/><rect x="350.7077435470442" y="592.7278803146368" height="7.272119685363236" width="8.992506244796003"/><rect x="560.532889258951" y="593.6923782904342" height="6.307621709565751" width="8.992506244796003"/><rect x="690.4246461282265" y="594.0771761890518" height="5.922823810948216" width="8.992506244796003"/><rect x="650.4579517069109" y="593.9463727586774" height="6.0536272413226015" width="8.992506244796003"/><rect x="230.80766028309748" y="590.3269092394158" height="9.67309076058416" width="8.992506244796003"/><rect x="480.59950041631976" y="593.2528589580686" height="6.7471410419314" width="8.992506244796003"/><rect x="300.7493755203997" y="592.2315832969858" height="7.768416703014168" width="8.992506244796003"/><rect x="730.3913405495421" y="594.2242479489516" height="5.775752051048357" width="8.992506244796003"/><rect x="130.89092422980855" y="579.5883407831697" height="20.411659216830344" width="8.992506244796003"/><rect x="40.96586178184853" y="594.4854086613356" height="5.514591338664445" width="8.992506244796003"/><rect x="330.7243963363864" y="592.6604580921219" height="7.339541907878129" width="8.992506244796003"/><rect x="340.71606994171526" y="592.717552288408" height="7.282447711591999" width="8.992506244796003"/><rect x="100.91590341382188" y="574.8828909212581" height="25.11710907874192" width="8.992506244796003"/><rect x="320.7327227310575" y="592.5430405107135" height="7.4569594892865325" width="8.992506244796003"/><rect x="450.6244796003331" y="593.1942121718897" height="6.805787828110283" width="8.992506244796003"/><rect x="370.69109075770194" y="592.928529436466" height="7.071470563534035" width="8.992506244796003"/><rect x="140.88259783513746" y="579.6188536514402" height="20.38114634855981" width="8.992506244796003"/><rect x="830.308076602831" y="594.7343126397392" height="5.265687360260813" width="8.992506244796003"/><rect x="600.4995836802665" y="593.8699690402477" height="6.1300309597522755" width="8.992506244796003"/><rect x="360.69941715237303" y="592.7283705684465" height="7.271629431553492" width="8.992506244796003"/><rect x="80.9325562031641" y="573.1902542000175" height="26.809745799982466" width="8.992506244796003"/><rect x="260.78268109908413" y="591.8155245209483" height="8.184475479051684" width="8.992506244796003"/><rect x="420.6494587843464" y="593.0632320876223" height="6.936767912377718" width="8.992506244796003"/><rect x="90.92422980849298" y="573.3725800973622" height="26.627419902637826" width="8.992506244796003"/><rect x="680.4329725228976" y="593.9993219572833" height="6.000678042716686" width="8.992506244796003"/><rect x="870.2747710241465" y="595.167195508909" height="4.832804491090997" width="8.992506244796003"/><rect x="530.5578684429643" y="593.545283596449" height="6.454716403550947" width="8.992506244796003"/><rect x="60.949208992506314" y="571.4751381215469" height="28.524861878453066" width="8.992506244796003"/><rect x="430.6411323896753" y="593.081272868389" height="6.9187271316110355" width="8.992506244796003"/><rect x="700.4163197335554" y="594.0835567857451" height="5.916443214254855" width="8.992506244796003"/><rect x="110.90757701915078" y="576.6695829687956" height="23.330417031204433" width="8.992506244796003"/><rect x="590.5079100749375" y="593.8528089248108" height="6.147191075189198" width="8.992506244796003"/><rect x="440.6328059950042" y="593.1345688960515" height="6.865431103948481" width="8.992506244796003"/><rect x="390.6744379683597" y="592.9595827900913" height="7.040417209908696" width="8.992506244796003"/><rect x="220.8159866777686" y="590.2700124539601" height="9.729987546039865" width="8.992506244796003"/><rect x="760.3663613655287" y="594.3559593800107" height="5.644040619989255" width="8.992506244796003"/><rect x="290.7577019150708" y="591.9924599434496" height="8.007540056550397" width="8.992506244796003"/><rect x="410.65778517901754" y="593.040187569413" height="6.9598124305870215" width="8.992506244796003"/><rect x="50.95753538717742" y="561.12828438949" height="38.87171561051002" width="8.992506244796003"/><rect x="400.6661115736886" y="592.9952004150992" height="7.004799584900752" width="8.992506244796003"/><rect x="800.3330557868443" y="594.5687704299723" height="5.431229570027654" width="8.992506244796003"/><rect x="570.5245628642798" y="593.7873438348723" height="6.212656165127669" width="8.992506244796003"/><rect x="160.86594504579523" y="584.4151500794292" height="15.584849920570832" width="8.992506244796003"/><rect x="240.79933388842636" y="591.0024100687316" height="8.997589931268408" width="8.992506244796003"/><rect x="190.8409658617819" y="589.1319631115339" height="10.868036888466122" width="8.992506244796003"/><rect x="250.79100749375525" y="591.198375084631" height="8.801624915368961" width="8.992506244796003"/><rect x="620.4829308909242" y="593.9257962131991" height="6.074203786800922" width="8.992506244796003"/><rect x="770.3580349708576" y="594.4112729878194" height="5.588727012180584" width="8.992506244796003"/><rect x="900.2497918401332" y="590.8338637810311" height="9.166136218968859" width="8.992506244796003"/></g></g></svg>